HIERARCHY
ROOT Hips
{
	OFFSET 0.00000 0.00000 0.00000
	CHANNELS 6 Xposition Yposition Zposition Zrotation Yrotation Xrotation 
	JOINT LHipJoint
	{
		OFFSET 0 0 0
		CHANNELS 3 Zrotation Yrotation Xrotation
		JOINT LeftUpLeg
		{
			OFFSET 1.84395 -1.68683 0.74144
			CHANNELS 3 Zrotation Yrotation Xrotation
			JOINT LeftLeg
			{
				OFFSET 2.27037 -6.23779 0.00000
				CHANNELS 3 Zrotation Yrotation Xrotation
				JOINT LeftFoot
				{
					OFFSET 2.56918 -7.05877 0.00000
					CHANNELS 3 Zrotation Yrotation Xrotation
					JOINT LeftToeBase
					{
						OFFSET 0.22276 -0.61202 1.71784
						CHANNELS 3 Zrotation Yrotation Xrotation
						End Site
						{
							OFFSET 0.00000 -0.00000 0.91613
						}
					}
				}
			}
		}
	}
	JOINT RHipJoint
	{
		OFFSET 0 0 0
		CHANNELS 3 Zrotation Yrotation Xrotation
		JOINT RightUpLeg
		{
			OFFSET -1.76833 -1.68684 0.74144
			CHANNELS 3 Zrotation Yrotation Xrotation
			JOINT RightLeg
			{
				OFFSET -2.49360 -6.85110 0.00000
				CHANNELS 3 Zrotation Yrotation Xrotation
				JOINT RightFoot
				{
					OFFSET -2.55538 -7.02085 0.00000
					CHANNELS 3 Zrotation Yrotation Xrotation
					JOINT RightToeBase
					{
						OFFSET -0.21516 -0.59115 1.68050
						CHANNELS 3 Zrotation Yrotation Xrotation
						End Site
						{
							OFFSET -0.00000 -0.00000 0.89604
						}
					}
				}
			}
		}
	}
	JOINT LowerBack
	{
		OFFSET 0 0 0
		CHANNELS 3 Zrotation Yrotation Xrotation
		JOINT Spine
		{
			OFFSET 0.06382 1.72312 -0.19613
			CHANNELS 3 Zrotation Yrotation Xrotation
			JOINT Spine1
			{
				OFFSET -0.00055 1.73507 0.23859
				CHANNELS 3 Zrotation Yrotation Xrotation
				JOINT Neck
				{
					OFFSET 0 0 0
					CHANNELS 3 Zrotation Yrotation Xrotation
					JOINT Neck1
					{
						OFFSET 0.03638 1.65562 0.09633
						CHANNELS 3 Zrotation Yrotation Xrotation
						JOINT Head
						{
							OFFSET 0.06388 1.62807 -0.32386
							CHANNELS 3 Zrotation Yrotation Xrotation
							End Site
							{
								OFFSET 0.00995 1.67644 -0.12021
							}
						}
					}
				}
				JOINT LeftShoulder
				{
					OFFSET 0 0 0
					CHANNELS 3 Zrotation Yrotation Xrotation
					JOINT LeftArm
					{
						OFFSET 3.09648 1.42991 0.28122
						CHANNELS 3 Zrotation Yrotation Xrotation
						JOINT LeftForeArm
						{
							OFFSET 5.11878 -0.00000 -0.00000
							CHANNELS 3 Zrotation Yrotation Xrotation
							JOINT LeftHand
							{
								OFFSET 3.59971 -0.00000 0.00000
								CHANNELS 3 Zrotation Yrotation Xrotation
								JOINT LeftFingerBase
								{
									OFFSET 0 0 0
									CHANNELS 3 Zrotation Yrotation Xrotation
									JOINT LeftHandIndex1
									{
										OFFSET 0.62877 -0.00000 0.00000
										CHANNELS 3 Zrotation Yrotation Xrotation
										End Site
										{
											OFFSET 0.50693 -0.00000 0.00000
										}
									}
								}
								JOINT LThumb
								{
									OFFSET 0 0 0
									CHANNELS 3 Zrotation Yrotation Xrotation
									End Site
									{
										OFFSET 0.51467 -0.00000 0.51467
									}
								}
							}
						}
					}
				}
				JOINT RightShoulder
				{
					OFFSET 0 0 0
					CHANNELS 3 Zrotation Yrotation Xrotation
					JOINT RightArm
					{
						OFFSET -3.33565 1.14597 0.05047
						CHANNELS 3 Zrotation Yrotation Xrotation
						JOINT RightForeArm
						{
							OFFSET -5.49020 -0.00000 0.00000
							CHANNELS 3 Zrotation Yrotation Xrotation
							JOINT RightHand
							{
								OFFSET -3.20659 -0.00000 -0.00000
								CHANNELS 3 Zrotation Yrotation Xrotation
								JOINT RightFingerBase
								{
									OFFSET 0 0 0
									CHANNELS 3 Zrotation Yrotation Xrotation
									JOINT RightHandIndex1
									{
										OFFSET -0.69188 -0.00000 0.00000
										CHANNELS 3 Zrotation Yrotation Xrotation
										End Site
										{
											OFFSET -0.55781 -0.00000 0.00000
										}
									}
								}
								JOINT RThumb
								{
									OFFSET 0 0 0
									CHANNELS 3 Zrotation Yrotation Xrotation
									End Site
									{
										OFFSET -0.56633 -0.00000 0.56633
									}
								}
							}
						}
					}
				}
			}
		}
	}
}
MOTION
Frames: 14
Frame Time: .0083333
0.5958 17.4599 9.0277 0 0 0 0 0 0 -21 0 0 0 0 0 0 0 0 0 0 0 0 0 0 21 0 0 0 0 0 0 0 0 0 0 0 0 0 0 0 0 0 0 0 0 0 0 -16 0 0 21 0 0 11 0 0 0 -8 0 0 0 0 0 0 0 0 0 0 0 0 0 0 0 0 0 0 0 0 8 0 0 0 0 0 0 0 0 0 0 0 0 0 0 0 0 0
0.5958 17.4599 9.0277 -8.6486 -5.2984 10.0624 0.0000 0.0000 0.0000 -23.1933 -43.9696 28.4226 0.0583 -1.5584 -4.2866 -0.7302 42.9499 -56.9834 1.5035 7.7446 21.9411 0.0000 0.0000 0.0000 26.7533 25.8058 4.6166 -0.0063 -0.5145 1.4139 1.0485 -20.3713 -18.3893 -0.1288 2.3134 -6.3726 5.7741 2.1140 1.2353 1.0451 3.4179 -10.8916 -2.4690 1.1419 -12.1911 -10.9428 -12.4532 -0.9435 12.4353 -18.9025 18.2681 4.1781 -9.0451 8.0303 -0.0000 0.0000 0.0000 -91.0166 10.6537 6.3524 10.2778 -17.1730 -1.5560 -0.0000 -0.0000 36.0737 11.0923 -14.3204 -2.7762 -7.1250 0.0000 -0.0000 -11.1455 15.5797 7.8954 -0.0000 0.0000 0.0000 92.8455 -12.0077 1.2952 -12.9958 21.2811 -2.4518 0.0000 0.0000 42.5747 6.8733 -30.0703 -3.4564 7.1250 -0.0000 -0.0000 40.1191 -55.2768 -11.4657
0.5975 17.4603 9.0252 -8.6327 -5.3032 10.1225 0.0000 0.0000 0.0000 -23.2125 -44.0845 28.3971 0.0575 -1.5475 -4.2568 -0.7421 42.9808 -56.9972 1.5390 7.8314 22.2032 0.0000 0.0000 0.0000 26.6433 25.6570 4.4313 -0.0063 -0.5108 1.4036 1.0356 -20.2410 -18.2504 -0.1332 2.3522 -6.4800 5.6017 1.8454 1.0824 1.3176 3.0476 -10.7797 -2.0304 1.0038 -12.0174 -11.1887 -12.2393 -1.4171 12.3638 -18.5706 18.5702 4.1984 -8.8785 8.1886 0.0000 -0.0000 0.0000 -91.4926 10.6952 5.8670 10.3155 -17.2316 -1.5671 -0.0000 -0.0000 34.9311 11.8436 -14.2648 -2.9580 -7.1250 0.0000 -0.0000 -10.6378 15.5833 7.5216 0.0000 -0.0000 0.0000 92.2765 -11.6384 1.8094 -12.8673 21.0925 -2.4053 0.0000 0.0000 42.9889 7.0938 -30.1809 -3.5799 7.1250 -0.0000 -0.0000 40.4150 -55.3200 -11.6180
0.5985 17.4610 9.0225 -8.6309 -5.2835 10.1411 0.0000 0.0000 0.0000 -23.1810 -44.1152 28.3436 0.0568 -1.5385 -4.2319 -0.6566 42.8832 -57.0673 1.5642 7.8923 22.3875 0.0000 0.0000 0.0000 26.6119 25.6163 4.3745 -0.0063 -0.5122 1.4073 1.0296 -20.2055 -18.2503 -0.1311 2.3336 -6.4285 5.4365 1.5586 0.9635 1.5992 2.6563 -10.6495 -1.5873 0.8542 -11.8398 -11.3764 -12.0099 -1.9353 12.2238 -18.1984 18.8832 4.1923 -8.6930 8.3411 -0.0000 -0.0000 0.0000 -91.9612 10.7328 5.4561 10.3726 -17.3203 -1.5841 -0.0000 -0.0000 33.6617 12.8234 -14.6069 -3.2854 -7.1250 0.0000 -0.0000 -9.9701 15.1685 7.1244 -0.0000 -0.0000 0.0000 91.7152 -11.2223 2.2965 -12.7010 20.8475 -2.3458 0.0000 0.0000 43.4610 7.1181 -30.0375 -3.5769 7.1250 -0.0000 -0.0000 40.3112 -55.2031 -11.4579
0.5986 17.4606 9.0195 -8.6691 -5.2796 10.1483 0.0000 0.0000 0.0000 -23.0881 -44.0971 28.2969 0.0572 -1.5438 -4.2465 -0.5883 42.8129 -57.1342 1.5654 7.8953 22.3964 0.0000 0.0000 0.0000 26.6514 25.6383 4.3542 -0.0065 -0.5199 1.4287 1.0299 -20.2133 -18.2660 -0.1347 2.3656 -6.5173 5.0943 0.9690 0.8369 2.2045 1.8654 -10.4221 -0.6572 0.5479 -11.5772 -11.6453 -11.5392 -3.0012 11.8049 -17.3947 19.4781 4.1305 -8.3012 8.6121 -0.0000 -0.0000 0.0000 -92.9527 10.5800 3.9038 10.4368 -17.4199 -1.6032 -0.0000 -0.0000 32.4988 13.8677 -14.9770 -3.6506 -7.1250 0.0000 -0.0000 -9.2630 14.7129 6.6963 -0.0000 -0.0000 0.0000 90.6486 -10.5131 3.7014 -12.4300 20.4463 -2.2502 0.0000 0.0000 43.9946 6.9528 -29.8383 -3.4722 7.1250 -0.0000 -0.0000 39.9893 -55.0793 -11.2138
0.5942 17.4635 9.0185 -8.3540 -5.3922 10.2441 0.0000 0.0000 0.0000 -23.4143 -44.2835 28.2344 0.0559 -1.5252 -4.1953 -0.5289 42.8857 -57.3697 1.5684 7.9024 22.4182 0.0000 0.0000 0.0000 26.2213 25.8606 4.2291 -0.0067 -0.5302 1.4570 1.0376 -20.2812 -18.3231 -0.0765 1.7848 -4.9112 4.6753 0.9770 0.6317 2.1244 1.8249 -10.4368 -0.5038 0.5653 -11.4727 -11.5986 -11.5248 -3.0338 11.7439 -17.3813 19.6211 4.1026 -8.2923 8.6545 0.0000 -0.0000 0.0000 -92.9639 10.6055 3.9296 10.3394 -17.2688 -1.5742 -0.0000 -0.0000 31.5485 14.7978 -14.4702 -3.7766 -7.1250 0.0000 -0.0000 -8.6319 15.1503 6.1472 0.0000 -0.0000 0.0000 90.5411 -10.2811 3.4567 -12.2111 20.1205 -2.1744 0.0000 0.0000 44.2393 6.6326 -29.7598 -3.3033 7.1250 -0.0000 -0.0000 39.6327 -55.0800 -11.0886
0.5868 17.4715 9.0406 -8.2252 -5.3068 10.6230 0.0000 0.0000 0.0000 -23.5385 -44.8194 28.1865 0.0555 -1.5207 -4.1827 -0.4639 43.0890 -57.7874 1.5745 7.9169 22.4620 0.0000 0.0000 0.0000 25.9520 26.0233 3.9914 -0.0054 -0.4747 1.3045 1.0477 -20.3841 -18.4340 -0.0042 0.4188 -1.1508 4.4311 0.9430 -0.2488 2.1258 1.7034 -10.4666 -0.3408 0.5388 -10.9786 -11.5846 -11.4986 -3.0342 11.6917 -17.3487 19.7344 4.0873 -8.2781 8.6825 0.0000 -0.0000 0.0000 -93.0284 10.6525 4.3872 10.2071 -17.0628 -1.5351 -0.0000 -0.0000 29.4545 16.6741 -14.1238 -4.1802 -7.1250 0.0000 -0.0000 -7.3513 15.3444 5.1875 0.0000 -0.0000 0.0000 90.3144 -10.0092 3.4350 -11.9231 19.6892 -2.0763 0.0000 0.0000 44.2775 6.2378 -29.7939 -3.1087 7.1250 -0.0000 -0.0000 39.3051 -55.1842 -11.0797
0.5851 17.4748 9.0473 -8.0826 -5.3367 10.7666 0.0000 0.0000 0.0000 -23.8694 -45.2268 28.3919 0.0553 -1.5180 -4.1753 -0.1839 43.1019 -58.4390 1.6432 8.0797 22.9563 0.0000 0.0000 0.0000 25.7108 26.1198 3.8641 -0.0051 -0.4612 1.2672 1.0513 -20.4092 -18.4437 -0.0058 -0.4897 1.3456 4.2581 0.9528 -0.5903 2.0908 1.6819 -10.4875 -0.2751 0.5454 -10.7974 -11.6418 -11.4807 -3.0305 11.7092 -17.3392 19.8595 4.1027 -8.2741 8.7303 0.0000 -0.0000 0.0000 -93.0062 10.6955 4.0910 10.1462 -16.9679 -1.5173 -0.0000 -0.0000 29.6743 16.7703 -14.3648 -4.2757 -7.1250 0.0000 -0.0000 -7.2896 15.0880 5.1836 0.0000 -0.0000 0.0000 90.1683 -9.8106 3.1799 -11.7706 19.4597 -2.0252 0.0000 0.0000 44.4848 6.0727 -29.8141 -3.0278 7.1250 -0.0000 -0.0000 39.1728 -55.2326 -11.0822
0.5874 17.4741 9.0452 -8.0904 -5.3743 10.7771 0.0000 0.0000 0.0000 -23.9785 -45.3598 28.5466 0.0561 -1.5279 -4.2025 -0.0414 43.0934 -58.7461 1.6785 8.1617 23.2063 0.0000 0.0000 0.0000 25.6780 26.0681 3.7851 -0.0053 -0.4717 1.2961 1.0425 -20.3209 -18.3502 -0.0088 -0.6042 1.6602 4.3409 1.0026 -0.6144 2.0250 1.7469 -10.4979 -0.3968 0.5659 -10.7888 -11.6235 -11.4797 -3.0054 11.7601 -17.3639 19.9327 4.1150 -8.2803 8.7571 0.0000 -0.0000 0.0000 -92.8617 10.8032 4.2273 10.1541 -16.9802 -1.5196 -0.0000 -0.0000 29.6490 16.8783 -14.4041 -4.3163 -7.1250 0.0000 -0.0000 -7.2167 15.0378 5.1387 0.0000 -0.0000 0.0000 90.1925 -9.7150 2.7536 -11.7719 19.4616 -2.0256 0.0000 0.0000 44.6697 6.0571 -29.8130 -3.0199 7.1250 -0.0000 -0.0000 39.1578 -55.2349 -11.0792
0.5879 17.4743 9.0447 -8.0877 -5.3919 10.7609 0.0000 0.0000 0.0000 -24.0737 -45.4201 28.6737 0.0566 -1.5355 -4.2236 -0.1138 43.2485 -58.7812 1.6477 8.0900 22.9878 0.0000 0.0000 0.0000 25.6726 26.0531 3.7908 -0.0054 -0.4740 1.3023 1.0350 -20.2892 -18.3818 -0.0094 -0.6270 1.7229 4.3838 1.0542 -0.6608 1.9457 1.8086 -10.4843 -0.5100 0.5888 -10.7390 -11.4969 -11.4915 -2.9748 11.7716 -17.3987 19.9362 4.0975 -8.2884 8.7464 0.0000 -0.0000 0.0000 -92.7090 10.8644 4.3458 10.1947 -17.0435 -1.5315 -0.0000 -0.0000 29.6993 16.9354 -14.0317 -4.2224 -7.1250 0.0000 -0.0000 -7.1715 15.4163 5.0473 0.0000 -0.0000 0.0000 90.2600 -9.6195 2.3867 -11.7909 19.4903 -2.0320 0.0000 0.0000 44.6822 5.8806 -29.8246 -2.9324 7.1250 -0.0000 -0.0000 39.0075 -55.2787 -11.0703
0.5882 17.4746 9.0446 -8.0585 -5.4074 10.7246 0.0000 0.0000 0.0000 -24.1867 -45.4324 28.7765 0.0568 -1.5376 -4.2293 -0.2046 43.3808 -58.7483 1.6107 8.0032 22.7239 0.0000 0.0000 0.0000 25.6596 26.0720 3.8417 -0.0055 -0.4779 1.3133 1.0230 -20.2579 -18.4814 -0.0111 -0.6810 1.8715 4.3792 1.0687 -0.7193 1.9067 1.8194 -10.4521 -0.5491 0.5941 -10.6646 -11.4106 -11.4743 -2.9075 11.7598 -17.3772 19.8762 4.0885 -8.2776 8.7014 -0.0000 0.0000 0.0000 -92.6737 10.8875 4.4300 10.2857 -17.1852 -1.5583 -0.0000 -0.0000 29.7771 16.9055 -12.8489 -3.8666 -7.1250 0.0000 -0.0000 -7.1772 16.6383 4.8603 -0.0000 0.0000 0.0000 90.2513 -9.5164 2.1996 -11.8205 19.5348 -2.0419 0.0000 0.0000 44.6250 5.6687 -29.8268 -2.8264 7.1250 -0.0000 -0.0000 38.8169 -55.3221 -11.0464
0.5895 17.4747 9.0433 -8.0117 -5.4283 10.7093 0.0000 0.0000 0.0000 -24.1782 -45.3443 28.6701 0.0561 -1.5284 -4.2041 -0.2250 43.3360 -58.6461 1.6124 8.0071 22.7357 0.0000 0.0000 0.0000 25.5967 26.0546 3.8233 -0.0057 -0.4862 1.3361 1.0112 -20.1889 -18.4843 -0.0116 -0.6966 1.9143 4.3475 1.0360 -0.7969 1.9233 1.7679 -10.4144 -0.5084 0.5746 -10.5776 -11.4161 -11.4170 -2.8562 11.7330 -17.2834 19.8073 4.0970 -8.2397 8.6541 -0.0000 -0.0000 0.0000 -92.7661 10.9052 4.5042 10.4235 -17.3993 -1.5993 -0.0000 -0.0000 29.6616 16.5811 -11.5153 -3.4017 -7.1250 0.0000 -0.0000 -7.3978 18.0376 4.7837 -0.0000 -0.0000 0.0000 90.1021 -9.4017 2.3576 -11.8547 19.5864 -2.0533 0.0000 0.0000 44.4556 5.5478 -29.7764 -2.7616 7.1250 -0.0000 -0.0000 38.6637 -55.3059 -10.9761
0.5911 17.4753 9.0418 -8.0099 -5.4355 10.6701 0.0000 0.0000 0.0000 -24.1135 -45.2066 28.5624 0.0556 -1.5217 -4.1854 -0.1959 43.2073 -58.5466 1.6463 8.0868 22.9782 0.0000 0.0000 0.0000 25.5850 25.9524 3.8094 -0.0058 -0.4907 1.3484 0.9993 -20.0914 -18.4174 -0.0125 -0.7220 1.9841 4.3675 0.9821 -0.8338 1.9782 1.6960 -10.3713 -0.4544 0.5422 -10.5105 -11.5100 -11.3393 -2.8186 11.7690 -17.1662 19.7425 4.1417 -8.1914 8.6218 -0.0000 0.0000 0.0000 -92.9101 10.9163 4.3407 10.5050 -17.5256 -1.6237 -0.0000 -0.0000 29.4524 16.2313 -11.1836 -3.2317 -7.1250 0.0000 -0.0000 -7.6442 18.4032 4.8836 -0.0000 0.0000 0.0000 89.8919 -9.2711 2.5750 -11.8723 19.6129 -2.0592 0.0000 0.0000 44.3612 5.5575 -29.6178 -2.7531 7.1250 -0.0000 -0.0000 38.5373 -55.1777 -10.8040
0.5914 17.4742 9.0409 -8.0693 -5.4407 10.6105 0.0000 0.0000 0.0000 -23.9925 -45.0348 28.5066 0.0562 -1.5303 -4.2092 -0.1995 43.0886 -58.3869 1.6678 8.1369 23.1307 0.0000 0.0000 0.0000 25.6590 25.7948 3.8080 -0.0059 -0.4980 1.3684 0.9810 -19.9429 -18.3199 -0.0092 -0.6190 1.7010 4.4280 0.9436 -0.8520 2.0337 1.6482 -10.3282 -0.4246 0.5178 -10.4533 -11.5450 -11.2758 -2.7887 11.8163 -17.0807 19.7033 4.1765 -8.1522 8.5993 0.0000 0.0000 0.0000 -93.0146 10.9777 4.1585 10.5684 -17.6236 -1.6428 -0.0000 -0.0000 29.1871 16.1098 -11.2812 -3.2338 -7.1250 0.0000 -0.0000 -7.7289 18.3111 4.9546 0.0000 0.0000 0.0000 89.7685 -9.1837 2.5735 -11.9244 19.6911 -2.0767 0.0000 0.0000 44.3120 5.6812 -29.5495 -2.8088 7.1250 -0.0000 -0.0000 38.5917 -55.0991 -10.7445
